{
    "asset" : {
        "generator" : "Khronos glTF Blender I/O v1.8.19",
        "version" : "2.0"
    },
    "scene" : 0,
    "scenes" : [
        {
            "name" : "Scene",
            "nodes" : [
                0
            ]
        }
    ],
    "nodes" : [
        {
            "mesh" : 0,
            "name" : "Dragon",
            "rotation" : [
                0.7071068286895752,
                0,
                0,
                0.7071068286895752
            ],
            "scale" : [
                0.25,
                0.25,
                0.25
            ],
            "translation" : [
                0,
                0,
                -0.7306479811668396
            ]
        }
    ],
    "materials" : [
        {
            "name" : "Dragon with Attenuation",
            "pbrMetallicRoughness" : {
                "metallicFactor" : 0,
                "roughnessFactor" : 0
            }
        }
    ],
    "meshes" : [
        {
            "name" : "Dragon",
            "primitives" : [
                {
                    "attributes" : {
                        "POSITION" : 0,
                        "NORMAL" : 1,
                        "TEXCOORD_0" : 2
                    },
                    "indices" : 3,
                    "material" : 0
                }
            ]
        }
    ],
    "accessors" : [
        {
            "bufferView" : 0,
            "componentType" : 5126,
            "count" : 76809,
            "max" : [
                7.0467000007629395,
                9.939900398254395,
                3.1512999534606934
            ],
            "min" : [
                -7.0467000007629395,
                0,
                -3.1512999534606934
            ],
            "type" : "VEC3"
        },
        {
            "bufferView" : 1,
            "componentType" : 5126,
            "count" : 76809,
            "type" : "VEC3"
        },
        {
            "bufferView" : 2,
            "componentType" : 5126,
            "count" : 76809,
            "type" : "VEC2"
        },
        {
            "bufferView" : 3,
            "componentType" : 5125,
            "count" : 273648,
            "type" : "SCALAR"
        }
    ],
    "bufferViews" : [
        {
            "buffer" : 0,
            "byteLength" : 921708,
            "byteOffset" : 0
        },
        {
            "buffer" : 0,
            "byteLength" : 921708,
            "byteOffset" : 921708
        },
        {
            "buffer" : 0,
            "byteLength" : 614472,
            "byteOffset" : 1843416
        },
        {
            "buffer" : 0,
            "byteLength" : 1094592,
            "byteOffset" : 2457888
        }
    ],
    "buffers" : [
        {
            "byteLength" : 3552480,
            "uri" : "Dragon.bin"
        }
    ]
}
